<svg id="visual" viewBox="0 0 1500 250" width="1500" height="250" xmlns="http://www.w3.org/2000/svg" xmlns:xlink="http://www.w3.org/1999/xlink" version="1.1"><path d="M0 145L31.3 137.8C62.7 130.7 125.3 116.3 187.8 108.5C250.3 100.7 312.7 99.3 375.2 103.5C437.7 107.7 500.3 117.3 562.8 117C625.3 116.7 687.7 106.3 750.2 109.8C812.7 113.3 875.3 130.7 937.8 137C1000.3 143.3 1062.7 138.7 1125.2 134C1187.7 129.3 1250.3 124.7 1312.8 123.8C1375.3 123 1437.7 126 1468.8 127.5L1500 129L1500 0L1468.8 0C1437.7 0 1375.3 0 1312.8 0C1250.3 0 1187.7 0 1125.2 0C1062.7 0 1000.3 0 937.8 0C875.3 0 812.7 0 750.2 0C687.7 0 625.3 0 562.8 0C500.3 0 437.7 0 375.2 0C312.7 0 250.3 0 187.8 0C125.3 0 62.7 0 31.3 0L0 0Z" fill="#0066ff"></path><path d="M0 55L31.3 58C62.7 61 125.3 67 187.8 74.8C250.3 82.7 312.7 92.3 375.2 88.8C437.7 85.3 500.3 68.7 562.8 60.7C625.3 52.7 687.7 53.3 750.2 64.7C812.7 76 875.3 98 937.8 100.8C1000.3 103.7 1062.7 87.3 1125.2 77.7C1187.7 68 1250.3 65 1312.8 73C1375.3 81 1437.7 100 1468.8 109.5L1500 119L1500 0L1468.8 0C1437.7 0 1375.3 0 1312.8 0C1250.3 0 1187.7 0 1125.2 0C1062.7 0 1000.3 0 937.8 0C875.3 0 812.7 0 750.2 0C687.7 0 625.3 0 562.8 0C500.3 0 437.7 0 375.2 0C312.7 0 250.3 0 187.8 0C125.3 0 62.7 0 31.3 0L0 0Z" fill="#008cff"></path><path d="M0 58L31.3 59C62.7 60 125.3 62 187.8 53.7C250.3 45.3 312.7 26.7 375.2 17.3C437.7 8 500.3 8 562.8 17.3C625.3 26.7 687.7 45.3 750.2 47.8C812.7 50.3 875.3 36.7 937.8 35.2C1000.3 33.7 1062.7 44.3 1125.2 48.5C1187.7 52.7 1250.3 50.3 1312.8 53.7C1375.3 57 1437.7 66 1468.8 70.5L1500 75L1500 0L1468.8 0C1437.7 0 1375.3 0 1312.8 0C1250.3 0 1187.7 0 1125.2 0C1062.7 0 1000.3 0 937.8 0C875.3 0 812.7 0 750.2 0C687.7 0 625.3 0 562.8 0C500.3 0 437.7 0 375.2 0C312.7 0 250.3 0 187.8 0C125.3 0 62.7 0 31.3 0L0 0Z" fill="#4facf7"></path></svg>